<svg preserveAspectRatio="none" width="244" height="48" viewBox="0 0 244 48" xmlns="http://www.w3.org/2000/svg">
<path d="M235.844 33.2704C234.956 33.17 234.059 33.232 233.19 33.4536C233.009 33.2838 232.828 33.1179 232.647 32.9486C234.415 32.9957 236.183 32.8411 237.921 32.4872C235.974 32.3685 234.02 32.4623 232.089 32.7673C232.052 32.7673 232.069 32.7404 232.027 32.7467L232.007 32.7634C231.489 32.6762 230.969 32.5865 230.452 32.4992L230.949 32.0378C232.15 31.6854 233.374 31.4299 234.61 31.2734C235.267 31.3481 235.93 31.2297 236.529 30.9309C235.943 30.8156 235.339 30.8579 234.772 31.0542C234.808 30.9103 233.779 30.7468 234.891 30.6077C236.433 30.4159 235.387 30.272 234.781 30.1392L231.531 29.4198C231.028 29.3363 230.37 29.474 229.993 29.2107C232.126 28.8898 233.51 28.323 233.309 27.2353C234.817 27.1465 234.414 25.9739 236.428 26.1538C235.883 26.0483 235.337 25.9434 234.791 25.8392L236.333 25.5217C237.143 25.6427 237.969 25.5114 238.713 25.1433C237.386 24.8955 236.029 24.8842 234.699 25.1097C234.258 25.0292 233.615 25.1625 233.385 24.8618C234.657 24.7345 235.918 24.4996 237.156 24.1592C237.444 24.1343 237.735 24.1112 238.022 24.0834C239.228 23.7477 241.311 24.0906 241.741 23.1501L241.76 22.9046C242.003 22.7515 242.245 22.5977 242.488 22.4432L242.961 22.1939C244.646 22.027 243.851 21.602 243.476 21.2213C242.337 20.322 240.271 20.6664 238.579 20.5052L237.966 20.0256C238.011 19.8141 238.033 19.6041 237.615 19.4501C238.311 19.0458 238.077 18.8334 236.94 18.8075L236.98 18.4042H236.972H236.978C237.262 18.3409 238.147 18.3337 237.395 18.1298C236.645 17.9884 235.874 18.0503 235.152 18.3102L235.46 18.3581H235.456C235.35 18.3495 235.296 18.2689 235.149 18.3135C234.824 18.3361 234.5 18.3615 234.176 18.3845C233.829 18.3639 233.485 18.3404 233.137 18.3198C233.499 18.1725 233.857 18.0224 234.217 17.8747C235.246 17.8618 236.271 17.7158 237.268 17.4397C237.632 17.3625 238.239 17.4191 238.282 17.152C238.355 16.6925 238.49 16.706 239.161 16.4628C239.907 16.1914 241.131 16.271 241.549 15.8532C241.427 15.3056 239.501 15.9971 239.751 15.26C240.371 15.0873 240.784 14.8557 240.809 14.5181C241.4 14.3742 241.405 14.2025 240.946 14.0068C241.049 13.5544 241.12 13.0943 241.161 12.6304C241.171 12.1691 241.28 11.6463 239.683 11.6415C239.537 11.5862 239.38 11.5706 239.227 11.596C237.219 11.0342 235.111 11.0302 233.101 11.5845C232.332 11.1097 232.317 11.091 233.402 10.913C234.358 10.7586 235.61 10.8301 235.89 10.2133C237.359 10.1197 238.816 9.87755 240.243 9.4901L244 8.86328C242.818 8.36317 241.592 7.9936 240.341 7.76024C240.284 7.44275 240.077 7.19145 239.171 7.26386C237.867 7.04613 237.281 6.7627 237.641 6.03037C238.131 5.04626 236.077 3.96383 233.667 3.67704C232.742 3.61009 231.812 3.68632 230.907 3.90341H230.902L230.886 3.88902C229.449 3.8451 228.012 3.9327 226.589 4.15087C226.257 4.14752 225.927 4.1432 225.595 4.1384C225.485 3.46698 223.785 3.8919 223.039 3.47178C226.86 3.19328 230.665 2.69251 234.436 1.97163C232.174 1.97163 230.691 1.9913 229.213 1.96828C227.072 2.23283 224.906 2.16678 222.782 1.77213H222.222L219.539 1.74671C219.398 1.71401 219.253 1.70527 219.109 1.72081C217.269 1.4011 215.408 1.25012 213.544 1.26952C211.385 0.912943 209.202 0.756185 207.018 0.800965C202.371 0.286327 197.696 0.114075 193.027 0.28541C191.657 0.145373 190.277 0.145373 188.907 0.28541H187.603C186.762 0.068013 185.894 -0.00626244 185.032 0.0652806C179.866 0.0624031 174.698 0.0609643 169.528 0.0609643C164.542 -0.0349529 159.56 -0.0176878 154.582 0.11276C152.33 -0.0237146 150.072 0.0423777 147.831 0.310349L147.344 0.521846C145.148 -0.0448797 142.87 -0.129369 140.643 0.273421L140.827 0.364542H140.729L141.225 0.558774C141.08 0.445903 140.908 0.379423 140.729 0.36694L140.643 0.273421C140.287 0.291645 139.931 0.307471 139.575 0.324737C137.961 0.103465 136.328 0.0886552 134.711 0.280615L132.146 0.266227C131.255 0.226901 130.365 0.156402 129.474 0.154004C121.613 0.127147 113.749 0.0878211 105.886 0.108443C102.917 0.115158 99.9246 -0.0176878 96.9775 0.264788C92.4998 0.252799 88.039 0.374614 83.5884 0.580835C81.8978 0.505844 80.2043 0.567403 78.5222 0.764996C80.1765 0.774268 81.8304 0.782581 83.4838 0.789935C81.8332 0.62575 80.1724 0.617405 78.5204 0.764996C77.4816 0.785778 76.4417 0.805761 75.4005 0.824945C74.0599 0.747137 72.7154 0.807358 71.3854 1.00479H71.3823C70.3803 1.02078 69.378 1.03772 68.3755 1.05563C66.6918 0.985983 65.0057 1.0448 63.3297 1.23163C62.472 1.2521 61.6141 1.27208 60.7561 1.29158C58.9079 1.21046 57.0567 1.27618 55.2175 1.48821C54.8898 1.5026 54.5613 1.51795 54.2327 1.53042C52.7406 1.45824 51.2456 1.52403 49.7639 1.72705C49.6156 1.70304 49.4643 1.71087 49.3187 1.75007C47.6433 1.67378 45.9648 1.74531 44.3001 1.96396C43.803 1.98155 43.3057 2.00009 42.8083 2.01959C42.6191 2.02295 42.4299 2.02583 42.2398 2.03014C41.3199 1.97717 40.3973 2.03249 39.4885 2.19512C39.444 2.20232 39.3995 2.19512 39.355 2.20232C37.7335 2.10664 36.1071 2.1936 34.5024 2.46177H34.4993C32.1298 2.41736 29.7606 2.57161 27.4132 2.92313C26.9247 2.942 26.435 2.96102 25.9441 2.9802C24.9861 3.11896 24.0273 3.25836 23.0678 3.3984C23.1312 3.42282 23.1928 3.45248 23.2521 3.48713C23.2869 3.51818 23.3163 3.5557 23.3389 3.59791C23.2111 3.60654 23.0882 3.62477 22.9605 3.63244C22.9903 3.55235 23.1083 3.50391 23.0678 3.3984C20.1362 3.62525 17.2313 3.90053 14.4503 4.38251C14.2932 4.35673 14.1327 4.36902 13.9806 4.41848C13.5919 4.34988 13.1932 4.39835 12.8284 4.55852C10.5544 4.81606 8.29909 5.1182 5.99924 5.31818C4.40369 5.45774 3.90908 5.84573 4.02172 6.49269C3.35883 6.78044 3.62594 7.1526 3.57653 7.49503C3.38191 7.76711 3.24514 8.08193 3.17591 8.41723C3.10667 8.75253 3.10666 9.10012 3.17586 9.43543C3.06777 9.7042 3.01312 9.99437 3.01542 10.2873C3.01772 10.5802 3.07692 10.8693 3.18921 11.136C3.00001 11.5571 3.11131 11.9585 3.55828 12.3432C3.34102 12.7316 3.20212 13.1234 3.53424 13.5157C2.52455 14.1584 4.0422 15.0547 2.43818 15.6374C2.46712 15.6672 2.54369 15.6744 2.5842 15.6974L2.55838 15.7003L2.43818 15.6374C1.75482 15.7084 1.09149 15.7914 0.893378 16.1487C0.299942 16.4364 0.495825 16.8023 0.419698 17.1385L0.383192 17.6181C-0.474685 18.9025 0.363159 20.1806 0.451751 21.4639C0.63695 22.0193 0.821703 22.5753 1.00601 23.1319C1.17489 23.5335 1.34287 23.9357 1.50996 24.3386C1.50996 24.6532 1.83005 24.8939 2.40034 25.0752L2.37942 25.7404C1.56962 26.2267 0.836839 26.6996 3.12644 26.7298C3.10263 26.659 3.08591 26.5857 3.07658 26.5111H3.16117C3.09795 26.5825 3.01203 26.6526 3.12778 26.7303C4.09962 27.0458 5.93514 26.2708 6.39056 27.2362C6.49396 27.25 6.59889 27.2402 6.69858 27.2076C6.79826 27.175 6.89049 27.1202 6.96931 27.0468C7.12553 27.0123 7.28443 26.9938 7.44388 26.9916C7.43809 27.0396 7.36152 27.0319 7.34727 27.0746C7.22467 27.0366 7.09593 27.0275 6.96975 27.0477C6.77565 27.1096 6.58244 27.171 6.38834 27.2348C6.02833 27.2492 5.66787 27.2652 5.30697 27.2827C3.97853 27.1857 2.64442 27.2311 1.32432 27.4185C0.709515 27.407 0.20111 27.546 0.154366 27.7921C0.104059 28.0601 0.774958 28.0165 1.16183 28.0319C2.84197 28.1043 4.527 28.1551 6.20982 28.2151L6.24543 28.6577H2.26055C3.2137 29.5176 5.08215 28.5618 5.77264 29.2975C5.80514 29.3387 5.9062 29.3138 5.9574 29.3358C5.89195 29.3752 5.89551 29.4279 5.79312 29.462C5.71744 29.4092 5.71032 29.3531 5.77264 29.2975L3.17185 29.4327C2.44887 29.4279 1.56917 29.2462 1.15337 29.6457C1.00601 29.7871 1.59856 29.813 1.91019 29.848C3.4127 29.6735 4.3004 30.3799 5.69206 30.3636C5.52289 32.2119 4.84086 34.0746 6.43464 35.876L6.49118 36.1205C6.4796 36.3666 6.46803 36.614 6.45556 36.8601L6.30598 37.2821L6.4796 37.7089C6.44799 37.7209 6.47203 37.7459 6.42484 37.754C6.78411 37.5761 6.63052 37.426 6.30598 37.2821C5.81983 37.7617 5.59368 38.2528 5.93024 38.7688C4.55372 39.81 5.55094 41.0924 4.18777 42.1374C4.00168 42.3772 3.53735 42.606 4.05644 42.8702L3.72789 43.615C3.69539 43.9234 3.66557 44.2308 3.63485 44.5402C3.6531 44.8063 3.49817 45.1022 4.2265 45.2533C4.38387 45.2404 4.54212 45.2566 4.6944 45.3013L3.62594 45.7276C3.53201 46.2072 3.63663 46.5645 5.11198 46.5232C7.52401 46.4542 9.94584 46.4542 12.3628 46.4249C14.3574 46.5641 16.3597 46.5054 18.3443 46.2494L18.4912 46.2873L18.6346 46.246C20.3341 46.5353 22.0528 46.675 23.7734 46.6638C26.8508 47.0014 29.9432 47.1548 33.0364 47.1232C36.65 47.2426 40.2378 47.5476 43.8861 47.411L44.4301 47.4052C46.0531 47.6362 47.6919 47.7114 49.3272 47.6297C50.4063 47.6271 51.4864 47.6242 52.5673 47.621L52.0393 47.4205L52.0874 47.4052C52.2321 47.5094 52.3942 47.5827 52.5646 47.621L54.2403 47.6388L60.6955 47.7217C62.6946 47.8957 64.7019 47.9348 66.7056 47.8387C67.0822 47.9212 67.2109 47.8229 67.2807 47.6843C68.1898 47.6191 69.2734 47.8498 69.9372 47.3731C70.1357 47.3894 70.3338 47.4071 70.5315 47.4249C71.3158 47.8013 72.1644 47.9972 73.023 48C73.8816 48.0028 74.7312 47.8125 75.5176 47.4412C75.6957 47.3688 75.8787 47.2973 76.0576 47.2282C76.2054 47.2143 76.3523 47.2009 76.4993 47.1803C76.8443 47.2647 77.1902 47.3457 77.5352 47.4282C77.6648 47.716 77.9443 47.8546 78.7221 47.9044C80.5188 47.9866 82.3187 47.9132 84.1044 47.6848C84.2304 47.5927 84.1284 47.5083 84.0537 47.4253L84.1427 47.4297L84.1044 47.6848C84.6262 48.1778 85.5651 47.7284 86.2435 47.8685C87.5583 47.863 88.8724 47.8584 90.1857 47.8546C90.7542 47.8483 91.4322 48.0215 91.7884 47.6666V47.6637L91.791 47.6675C93.9214 47.97 96.0795 47.966 98.2089 47.6555C99.1221 47.7335 100.041 47.6567 100.932 47.4277C101.347 47.7264 101.824 47.9089 102.321 47.9588C102.818 48.0086 103.318 47.9242 103.777 47.7131C104.018 47.5788 103.941 47.4628 103.667 47.3596C103.703 47.4771 103.737 47.5956 103.775 47.7131C104.474 47.4119 105.275 48.185 105.953 47.6719C106.105 47.6719 106.258 47.6647 106.407 47.6546C108.228 47.3913 110.045 48.362 111.863 47.6546C112.21 47.6656 112.557 47.6743 112.904 47.6843C113.809 47.8157 114.727 47.8039 115.628 47.6493C116.343 47.6742 117.059 47.7021 117.774 47.727C118.509 47.5673 120.958 47.8896 118.892 46.9477C119.444 46.9477 119.995 46.9477 120.549 46.9414C122.348 47.3205 124.18 47.4814 126.011 47.421C126.743 47.5233 127.483 47.5259 128.215 47.4287C128.524 47.4287 128.838 47.4321 129.145 47.4321C129.338 47.5515 129.557 47.6141 129.779 47.6135C130.002 47.6129 130.22 47.5492 130.412 47.4287C131.038 47.2369 131.846 47.0719 130.902 46.6805V46.5055C131.624 46.4735 132.346 46.4408 133.07 46.4072C134.565 46.5263 136.068 46.4033 137.529 46.0422C138.014 46.0173 138.498 45.9943 138.984 45.9736C139.36 46.0604 139.723 46.1655 140.121 46.2264C140.549 46.2945 141.056 46.575 141.441 46.3031C141.811 46.0408 140.86 45.988 140.736 45.7756L140.661 45.7314C142.291 45.7519 143.921 45.7732 145.551 45.7952L145.543 45.8648L145.548 45.9372C145.131 45.988 144.713 46.0395 144.296 46.0916C144.648 46.4267 145.09 46.6312 145.557 46.6748C144.957 47.4354 145.932 47.4978 147.237 47.4129C147.601 47.3381 147.968 47.2637 148.332 47.1884C148.871 47.264 149.419 47.1811 149.918 46.9486C151.282 47.1475 152.666 47.1112 154.019 46.8412C153.466 46.3909 152.099 46.6321 151.492 46.2379C152.625 46.1382 153.744 45.9057 154.831 45.5444C155.18 45.5444 155.529 45.5444 155.879 45.5444C155.849 46.0077 156.292 46.248 157.405 46.2398C158.519 46.2317 158.616 45.9118 158.634 45.5463C159.171 45.5195 159.707 45.4926 160.244 45.4658C160.335 45.3953 160.208 45.3444 160.165 45.2854H160.233C160.24 45.3445 160.243 45.4039 160.244 45.4634L160.778 45.5439C160.985 45.7578 159.954 46.1194 161.131 46.2072C162.296 46.295 162.486 45.9463 162.46 45.5415C162.618 45.484 162.788 45.4783 162.949 45.5252C163.143 45.7559 163.337 45.9875 163.528 46.2187C163.516 46.2825 163.502 46.3429 163.496 46.4048C162.868 46.5583 161.84 46.2825 161.379 46.882C162.544 46.6606 163.741 46.7397 164.872 47.1127C165.528 47.2742 166.213 47.2264 166.844 46.975C168.094 47.1268 169.357 47.1107 170.604 46.9271C171.109 47.006 171.625 46.9343 172.095 46.7199C172.915 46.5913 172.721 46.2686 172.804 46.0005C173.176 45.9818 173.545 45.9636 173.917 45.9468C174.38 46.0411 174.859 45.9786 175.288 45.7679C176.38 45.9489 177.491 45.9398 178.579 45.741C178.967 45.7105 179.356 45.7795 179.713 45.9425C180.544 46.3784 178.58 46.1281 179.096 46.5117C180.239 46.4681 181.668 46.6077 181.481 45.7243C182.906 45.7866 184.089 46.6585 185.74 45.9746C186.525 46.0461 187.283 46.4288 188.107 46.011C188.601 45.9842 189.094 45.9562 189.586 45.9271C189.771 45.9353 189.956 45.9425 190.141 45.9511C191.515 45.9511 193.086 46.2686 193.97 45.484L193.976 45.0116H194.065C193.833 45.1622 193.72 45.3156 193.972 45.484C195.166 45.718 196.42 46.1333 197.242 45.2672C197.363 45.1737 197.24 45.0984 197.147 45.0207H197.236L197.24 45.2672C198.158 45.5475 199.129 45.5599 200.053 45.3032C200.924 45.2869 201.795 45.272 202.666 45.2586C203.414 45.3026 204.165 45.2191 204.889 45.0111C205.424 45.0111 205.956 45.0154 206.492 45.0164C207.393 44.7776 208.297 44.5389 209.203 44.3004C210.291 44.1306 211.365 44.8365 212.461 44.3119L211.901 43.8275L211.924 43.58C212.529 43.3939 213.411 43.3762 213.743 43.0045C213.028 42.689 212.513 43.0333 211.924 43.0976C211.746 43.0937 211.568 43.0913 211.39 43.0894C211.39 42.9403 211.39 42.7911 211.39 42.6434L212.515 42.3796C213.72 42.1278 215.181 42.6069 216.305 42.1226C217.217 41.7533 218.961 42.1226 219.493 41.4161C220.582 41.5752 221.689 41.4918 222.747 41.1711H219.518C219.847 40.9793 220.221 40.8934 220.594 40.9236C221.169 40.8128 221.742 40.7011 222.759 40.5035C221.623 40.4493 221.03 40.4124 220.615 40.6953C220.443 40.691 220.27 40.6862 220.1 40.679C220.132 40.3011 221.401 39.9304 220.145 39.5424L222.25 39.4896C222.685 39.6585 222.327 40.1822 222.923 40.0877C223.85 39.939 222.994 39.5716 222.907 39.2964C225.339 39.1266 227.728 38.8863 230.318 38.4331C228.101 38.1602 226.384 39.1165 224.476 38.5449C225.93 38.3952 227.375 38.161 228.805 37.8432C230.038 37.6893 231.728 37.9439 232.191 37.1027C232.479 37.0601 232.845 37.0505 232.747 36.8447C233.413 36.8562 234.08 36.8684 234.746 36.8812C235.874 37.1369 237.045 37.0669 238.139 36.6783C236.897 36.7618 235.907 36.3484 234.711 36.3949C233.985 36.2769 233.242 36.3579 232.552 36.6303C231.85 36.6256 231.147 36.6204 230.445 36.615L229.871 36.3829C230.29 36.3551 230.753 36.3603 230.927 36.1325C233.311 36.001 235.683 35.679 238.022 35.169C238.379 35.1537 238.737 35.1393 239.097 35.1259C239.596 35.0137 240.045 34.7217 240.369 34.2981C239.768 34.2044 239.155 34.2657 238.58 34.477C238.375 34.477 238.169 34.4708 237.963 34.4698C237.266 34.4143 236.565 34.485 235.89 34.6789C235.002 34.6907 234.115 34.7031 233.229 34.7158C232.706 34.505 232.15 34.4052 231.591 34.4219C231.791 34.2751 231.996 34.1293 232.194 33.9835H232.196C233.416 33.4823 235.243 34.0411 236.442 33.5063C237.837 33.4814 237.581 33.0593 235.844 33.2704ZM232.032 27.4247L232.05 27.4587L232.032 27.4659H232.004C232.028 27.4549 232.013 27.4362 232.032 27.4247ZM230.321 28.4798L230.378 28.4736C230.307 28.4899 230.309 28.5354 230.221 28.545C230.282 28.533 230.271 28.4937 230.322 28.4793L230.321 28.4798ZM1.52198 20.5359L1.48726 20.5019L1.54113 20.5206L1.52198 20.5359ZM4.19311 11.83L4.0876 11.7576C4.1231 11.7495 4.15817 11.7395 4.19267 11.7274L4.19311 11.83ZM4.16863 9.20906C4.15101 9.21091 4.13327 9.21091 4.11565 9.20906L4.16284 9.19947L4.16863 9.20906ZM4.1802 6.56511L4.02528 6.49461C4.05822 6.53202 4.15883 6.53154 4.21448 6.55648L4.1802 6.56511ZM6.36652 17.6258L6.37409 17.6229H6.37988L6.38433 17.6258H6.36652ZM10.8322 5.31818L10.8233 5.35415C10.7881 5.35032 10.7534 5.35943 10.7187 5.35703C10.7418 5.33641 10.8024 5.33449 10.8322 5.31818ZM46.8787 2.03782H46.7999C46.8938 2.02439 46.9396 2.00185 46.9054 1.95341C46.8114 1.82248 47.0158 1.96828 46.8787 2.03782ZM63.465 47.6594V47.6503L63.4926 47.646V47.6594H63.465ZM65.4595 1.41867L65.5111 1.41579C65.7298 1.40388 65.949 1.40692 66.1673 1.42491C65.9327 1.40237 65.6945 1.42587 65.4595 1.41867ZM72.6524 46.0144L72.656 45.978L72.7058 45.9832L72.6524 46.0144ZM72.7014 44.5354L72.8625 44.531L72.8866 44.5426L72.7014 44.5354ZM73.1323 47.4258C73.2044 47.3731 73.2516 47.3179 73.2151 47.2537H73.2489L73.2516 47.4234L73.1323 47.4258ZM86.9487 46.7189L86.8846 46.7093L86.873 46.6993L87.0315 46.7084L86.9487 46.7189ZM95.5595 46.4993L95.5814 46.493L95.5854 46.5098L95.5595 46.4993ZM106.982 45.3665L106.957 45.3521L106.996 45.3497L106.982 45.3665ZM110.188 2.72602L110.192 2.71979H110.234L110.188 2.72602ZM139.007 1.33522L138.994 1.317H139.043L139.007 1.33522ZM141.214 0.764996H141.186H141.191L141.219 0.688263C141.219 0.712242 141.199 0.73766 141.214 0.764996ZM142.936 44.5948L142.912 44.5843L142.95 44.5948H142.936ZM144.283 1.08584L144.189 1.0585L144.541 1.06474C144.458 1.08536 144.366 1.06905 144.283 1.08584ZM146.111 1.03356C146.133 1.00479 146.114 0.973616 146.101 0.943882H146.104L146.116 1.03452L146.111 1.03356ZM156.626 0.941484C156.627 0.96523 156.621 0.988581 156.608 1.00815H156.402L156.626 0.941484ZM165.69 45.0394L165.666 45.0145H165.695L165.69 45.0394ZM167.277 44.5119L167.242 44.5147L167.221 44.5032L167.278 44.5138L167.277 44.5119ZM168.42 44.5248L168.441 44.5013H168.457L168.42 44.5248ZM171.15 45.5195L171.143 45.6341C171.129 45.5873 171.102 45.5459 171.066 45.5152C171.096 45.5123 171.12 45.5224 171.15 45.5195L171.101 45.4437C171.135 45.4365 171.176 45.4437 171.211 45.4365L171.15 45.5195ZM176.4 44.7881L176.41 44.7804H176.433L176.4 44.7881ZM184.048 1.00815L184.032 1.00479H184.058L184.048 1.00815ZM186.326 44.7943L186.347 44.79V44.8039L186.326 44.7943ZM193.562 44.9382H193.568H193.574H193.562ZM203.76 44.0678V44.0462L203.849 44.0519L203.76 44.0678ZM224 23.8671L223.877 23.8714C223.915 23.8571 223.966 23.8599 224.006 23.8465L224 23.8671ZM224.394 36.8299L224.331 36.7958L224.467 36.7896C224.475 36.8092 224.4 36.8116 224.394 36.8299ZM226.673 36.1584L226.738 36.1556L226.76 36.1824C226.74 36.1699 226.69 36.1719 226.673 36.1584ZM229.873 33.0066L229.885 32.9908L229.889 33.0042L229.873 33.0066ZM230.512 33.6914H230.489L230.448 33.6866L230.509 33.6679L230.489 33.6914L230.531 33.6857L230.512 33.6914Z"/>
</svg>
