<svg width="343" height="36" viewBox="0 0 343 36" fill="none" xmlns="http://www.w3.org/2000/svg">
<g filter="url(#filter0_d)">
<path d="M146.888 1.01346C146.188 1.06731 145.326 1.12117 144.303 1.17502C143.118 1.17502 143.064 1.06731 142.203 1.01346C141.664 0.959611 141.341 1.06731 141.449 1.33657C141.503 1.55198 142.149 1.92894 142.31 2.35976C142.472 2.84442 142.526 3.32909 142.041 4.72923L134.986 24.6005L126.855 5.1062C126.263 3.38294 126.263 2.89827 126.478 2.35976C126.586 1.98279 127.232 1.55198 127.34 1.33657C127.393 1.12117 127.07 0.959611 126.532 1.01346C125.562 1.06731 124.432 1.17502 122.924 1.17502C121.362 1.17502 120.231 1.06731 119.316 1.01346C118.777 0.959611 118.454 1.06731 118.562 1.33657C118.616 1.55198 119.316 1.60583 119.962 2.30591C120.339 2.73672 121.039 3.49064 122.008 5.42931C122.17 5.75242 122.331 6.12938 122.439 6.45249L122.816 7.36797C122.87 7.58338 122.978 7.74493 123.031 7.96034C123.031 7.96034 123.031 8.01419 123.085 8.01419L133.317 32.409C133.586 33.0014 134.017 33.3245 134.286 32.5167L143.98 5.64471C144.895 3.27524 145.649 2.73672 146.026 2.35976C146.726 1.65968 147.48 1.55198 147.588 1.33657C147.696 1.12117 147.426 0.959611 146.888 1.01346ZM127.124 21.8002C126.909 21.6925 126.586 21.9618 126.316 22.3926L124.647 25.0852L116.3 5.2139C115.654 3.43679 115.708 2.95213 115.869 2.41361C115.977 2.03665 116.623 1.60583 116.731 1.39043C116.838 1.12117 116.515 1.01346 115.977 1.06731C115.061 1.12117 113.93 1.17502 112.369 1.17502C110.807 1.17502 109.676 1.06731 108.761 1.01346C108.222 0.959611 107.953 1.12117 108.007 1.39043C108.061 1.60583 108.761 1.65968 109.407 2.35976C109.784 2.79057 110.43 3.49064 111.399 5.37545C111.615 5.75242 111.776 6.12938 111.938 6.50634L112.315 7.42182C112.369 7.58338 112.476 7.79878 112.53 7.96034V8.01419L122.708 32.3013C122.87 32.6244 123.031 32.9476 123.247 32.9476C123.408 32.9476 123.624 32.7321 123.731 32.5167L126.963 23.1465C127.286 22.5003 127.393 21.9079 127.124 21.8002Z" fill="white"/>
<path d="M332.084 14.7995C327.668 11.6222 326.591 10.2759 326.591 8.44499C326.591 7.0987 327.668 5.42929 330.361 5.10618C334.4 4.62152 336.231 7.26025 336.608 7.96032C337.362 9.25277 337.146 10.4914 337.523 10.8145C337.685 10.9222 338.008 10.7606 338.008 10.0605C338.008 8.8758 338.008 5.91396 338.008 5.32159C338.008 4.56766 337.415 4.35226 336.069 3.92144C335.1 3.59833 332.784 3.05981 330.684 3.05981C326.753 3.05981 323.091 4.67537 322.391 8.49884C321.906 11.2453 322.552 14.0994 327.83 18.0845C332.461 21.531 334.238 22.985 334.238 25.2467C334.238 27.5624 332.407 29.501 328.961 29.501C328.53 29.501 328.153 29.501 327.776 29.4472C327.507 29.4472 327.453 29.501 327.507 29.6626C327.56 29.8241 327.937 30.4165 327.991 30.5242C328.045 30.6319 328.207 30.7935 328.422 30.8473C329.014 30.955 329.661 30.955 330.307 30.955C334.13 30.955 339.031 28.8548 339.031 24.0081C339.031 20.9924 337.631 18.7845 332.084 14.7995Z" fill="white"/>
<path d="M235.689 3.16754C231.489 3.16754 227.935 4.56769 225.35 7.26027C222.926 9.79131 221.58 13.2378 221.58 17.0613C221.58 20.8848 222.926 24.3313 225.35 26.8623C227.935 29.501 231.489 30.955 235.689 30.955C239.89 30.955 243.444 29.5549 246.029 26.8623C248.452 24.3313 249.798 20.8848 249.798 17.0613C249.798 13.2378 248.452 9.79131 246.029 7.26027C243.444 4.56769 239.89 3.16754 235.689 3.16754ZM235.689 28.424C230.519 28.424 227.019 23.8466 227.019 17.0074C227.019 10.1683 230.519 5.59087 235.689 5.59087C240.859 5.59087 244.359 10.1683 244.359 17.0074C244.359 23.8466 240.913 28.424 235.689 28.424Z" fill="white"/>
<path d="M216.841 12.3223C216.841 6.23709 212.587 3.16754 205.263 3.16754C201.87 3.16754 201.44 3.38295 199.339 3.4368C197.832 3.4368 196.539 3.3291 195.624 3.27524C195.085 3.22139 194.762 3.3291 194.87 3.59836C194.924 3.81376 195.624 3.86761 196.27 4.56769C196.862 5.16006 196.97 6.23709 196.97 7.9065V26.1622C196.97 27.1854 196.862 28.0471 196.755 28.5856C196.701 28.7471 196.647 28.9087 196.593 29.1241C196.485 29.2856 196.378 29.3933 196.27 29.501C195.624 30.2011 194.924 30.255 194.87 30.4704C194.762 30.7396 195.085 30.8473 195.624 30.7935C195.947 30.7935 196.27 30.7396 196.593 30.7396C197.778 30.6858 198.747 30.6319 199.393 30.6319C200.955 30.6319 202.247 30.7396 203.163 30.7935C203.701 30.8473 204.025 30.7396 203.917 30.4704C203.863 30.255 203.163 30.2011 202.517 29.501C202.14 29.1241 201.87 28.6933 201.817 26.8623V7.36798C201.817 6.99102 201.817 6.39865 201.924 5.53702C202.732 5.26776 203.648 5.16006 205.048 5.16006C208.494 5.16006 211.564 7.31413 211.564 12.3223C211.564 17.0074 209.679 20.0231 205.479 21.4233C205.048 21.5848 204.994 21.6387 204.94 21.908C204.886 22.3926 204.94 22.7157 205.532 22.6619C213.233 21.5848 216.841 17.0074 216.841 12.3223Z" fill="white"/>
<path d="M319.106 7.79879C319.052 6.82945 319.106 6.29094 318.675 4.24457C318.621 3.86761 318.459 3.49064 318.136 3.32909C317.759 3.16753 316.628 3.16753 315.928 3.22139C315.713 3.22139 311.136 3.38294 306.72 3.38294C302.304 3.38294 297.726 3.22139 297.511 3.22139C296.811 3.16753 295.68 3.16753 295.303 3.32909C294.98 3.49064 294.872 3.81376 294.765 4.24457C294.388 6.23708 294.441 6.82945 294.334 7.79879C294.28 8.3373 294.388 8.66041 294.657 8.55271C294.872 8.49886 294.98 7.79878 295.626 7.15256C296.434 6.34479 297.942 5.48316 301.658 5.48316C303.112 5.48316 304.189 5.96782 304.242 7.69108V7.85264V26.5392C304.242 28.047 304.081 28.9625 303.542 29.4472C302.842 30.0934 302.196 30.2011 302.142 30.4165C302.035 30.6319 302.25 30.7935 302.681 30.7935C302.735 30.7935 302.788 30.7935 302.896 30.7935C303.866 30.7396 305.104 30.6319 306.666 30.6319C308.228 30.6319 309.466 30.7396 310.435 30.7935C310.489 30.7935 310.597 30.7935 310.651 30.7935C311.082 30.7935 311.297 30.6858 311.189 30.4165C311.136 30.2011 310.489 30.0934 309.789 29.4472C309.251 28.9625 309.143 28.047 309.089 26.5392V7.69108C309.089 7.69108 309.089 7.69108 309.089 7.63723C309.089 5.96783 310.166 5.42931 311.674 5.42931C315.39 5.42931 316.898 6.29094 317.705 7.09871C318.352 7.79878 318.459 8.44501 318.675 8.49886C319.052 8.66041 319.159 8.39115 319.106 7.79879Z" fill="white"/>
<path d="M165.521 30.6319C166.867 30.6858 168.159 30.7396 168.913 30.7935C169.506 30.8473 169.829 30.6858 169.721 30.4165C169.613 30.0934 168.644 29.7703 167.729 28.8548C167.136 28.3163 166.975 27.6701 166.275 26.2161L156.743 3.54449C156.527 3.16752 156.043 2.95212 155.72 3.65219L147.588 26.1622C146.726 28.5317 145.811 29.1779 145.434 29.5549C144.788 30.2011 144.142 30.0934 144.034 30.4165C143.926 30.6858 144.249 30.7935 144.788 30.7396C145.488 30.6858 146.296 30.6319 147.319 30.5781C148.504 30.5781 148.665 30.6858 149.527 30.7396C150.065 30.7935 150.334 30.6858 150.281 30.4165C150.227 30.2011 149.581 29.8241 149.419 29.4472C149.257 28.9625 149.204 28.5317 149.634 27.2393L155.235 11.5684L160.028 23.0388H155.02C154.589 23.0388 154.481 23.2004 154.373 23.5773C154.158 24.2236 154.05 24.6005 154.104 24.7082C154.212 24.8698 154.696 24.8698 154.966 24.8698H160.836L161.751 27.1316C162.236 28.5317 162.182 29.0164 162.02 29.501C161.913 29.878 161.266 30.255 161.159 30.4704C161.051 30.7396 161.374 30.8473 161.913 30.7935C162.882 30.7396 164.013 30.6319 165.521 30.6319Z" fill="white"/>
<path d="M259.977 4.62152C260.623 3.92144 261.323 3.86759 261.377 3.65219C261.485 3.38293 261.161 3.27522 260.623 3.32908C259.654 3.38293 258.523 3.49063 257.015 3.49063C255.453 3.49063 254.215 3.38293 253.245 3.32908C252.707 3.27522 252.384 3.38293 252.491 3.65219C252.545 3.86759 253.245 3.92144 253.891 4.62152C254.484 5.21389 254.592 6.18322 254.592 7.96033V17.0074V26.0545C254.592 28.4778 254.322 28.9625 253.891 29.3933C253.245 30.0934 252.545 30.1472 252.491 30.3627C252.384 30.6319 252.707 30.7396 253.245 30.6858C254.215 30.6319 255.453 30.5242 257.015 30.5242C258.577 30.5242 259.707 30.6319 260.623 30.6858C261.161 30.7396 261.485 30.6319 261.377 30.3627C261.323 30.1472 260.623 30.0934 259.977 29.3933C259.6 29.0164 259.331 28.5855 259.331 26.7546V7.31411C259.277 5.42929 259.6 4.99848 259.977 4.62152Z" fill="white"/>
<path d="M190.454 3.22138C189.754 3.27523 188.623 3.32908 187.438 3.32908C186.092 3.32908 185.069 3.27523 184.261 3.22138C183.776 3.16752 183.507 3.27523 183.615 3.43678C183.668 3.59834 184.261 3.8676 184.368 4.13686C184.53 4.51382 184.53 4.83693 184.153 5.80626L179.199 15.1765L174.244 5.80626C173.814 4.83693 173.867 4.51382 174.029 4.13686C174.137 3.8676 174.729 3.59834 174.783 3.43678C174.891 3.27523 174.621 3.16752 174.137 3.22138C173.329 3.27523 172.306 3.32908 170.959 3.32908C169.721 3.32908 168.59 3.27523 167.944 3.22138C167.405 3.16752 167.136 3.27523 167.244 3.49063C167.351 3.70604 168.213 3.92145 169.021 4.56767C169.505 4.94463 169.721 5.37545 170.313 6.39863L176.937 18.8922V26.1084C176.937 28.5317 176.668 29.0164 176.237 29.4472C175.591 30.1472 174.891 30.2011 174.837 30.4165C174.729 30.6858 175.052 30.7935 175.591 30.7396C176.56 30.6858 177.799 30.5781 179.36 30.5781C180.922 30.5781 182.053 30.6858 182.968 30.7396C183.507 30.7935 183.83 30.6858 183.722 30.4165C183.668 30.2011 182.968 30.1472 182.322 29.4472C181.945 29.0702 181.676 28.6394 181.676 26.8084V18.8922L188.3 6.45248C188.946 5.4293 189.107 4.99848 189.592 4.62152C190.4 3.9753 191.262 3.75989 191.369 3.54449C191.262 3.27523 190.992 3.22138 190.454 3.22138Z" fill="white"/>
<path d="M290.295 3.27521C289.379 3.32906 288.733 3.43677 287.871 3.43677C287.01 3.43677 286.256 3.32906 285.287 3.27521C284.748 3.22136 284.479 3.32906 284.587 3.59832C284.64 3.81373 285.394 3.81373 286.041 4.45995C286.417 4.89076 286.633 5.42928 286.633 7.58335L286.31 21.531L272.416 3.86758C272.201 3.59832 272.039 3.32906 271.716 3.32906C271.177 3.27521 269.67 3.49062 268.808 3.49062C267.946 3.49062 267.354 3.38292 266.385 3.32906C265.846 3.27521 265.577 3.38292 265.685 3.65217C265.738 3.86758 266.492 3.86758 267.139 4.5138C267.516 4.94462 267.731 5.48313 267.731 7.6372C267.731 7.6372 267.731 23.0927 267.731 24.2235C267.731 25.3544 267.731 26.4315 267.892 26.8623C268.108 27.4546 269.293 30.0395 269.831 30.0395C270.047 30.0395 269.993 29.3933 269.993 28.5855V25.1929V7.96031C275.539 15.0149 285.933 28.4778 286.579 29.2318C287.495 30.4165 287.764 30.6858 288.248 30.6858C289.056 30.6858 289.002 29.4472 289.002 28.5855C289.002 26.8623 289.002 7.79876 289.002 7.79876C289.002 5.42928 289.218 4.89076 289.595 4.45995C290.241 3.81373 290.941 3.81373 291.049 3.59832C291.156 3.38292 290.833 3.27521 290.295 3.27521Z" fill="white"/>
</g>
<g filter="url(#filter1_d)">
<path d="M29.4442 16.1073C28.5126 16.1694 27.3637 16.2626 25.8421 16.2626C24.2895 16.2626 23.1716 16.1694 22.24 16.1073C21.681 16.0762 21.4015 16.1694 21.4947 16.4489C21.5879 16.6662 22.24 16.7284 22.9231 17.4115C23.4821 18.0015 23.6063 19.0263 23.6063 20.6721V27.5658C23.6063 28.4973 23.7926 28.7768 24.7552 29.4289C25.8421 30.1742 26.8668 31.0126 27.4879 31.8821C27.6121 32.0374 27.7674 32.1616 27.9226 32.1305C28.0779 32.0684 28.14 31.5095 28.14 31.5095V20.051C28.14 18.2189 28.4505 17.7841 28.8232 17.3805C29.4753 16.6973 30.1584 16.6352 30.2516 16.4178C30.2826 16.2005 29.9721 16.0762 29.4442 16.1073Z" fill="white"/>
<path d="M17.0853 3.18935C20.7185 3.18935 22.4574 4.05883 24.2275 5.48725C25.4696 6.48094 26.339 7.87832 26.8359 8.872C27.3638 9.9899 27.2706 10.3004 27.5811 10.4557C27.7364 10.5178 28.078 10.3625 28.078 9.71043C28.109 8.65463 28.078 7.25726 28.078 4.99041C28.078 4.24514 27.6122 3.99672 25.2832 3.00303C24.2275 2.53724 21.0911 1.35724 17.0853 1.35724C7.67634 1.35724 1 8.34411 1 16.9768C1 24.7089 6.31002 30.9816 11.7442 32.5652C11.9306 32.6274 12.1479 32.6895 12.2721 32.7205C12.5516 32.7826 12.6137 32.5031 12.6137 31.851C12.6137 31.6026 12.5516 31.5095 12.21 31.1989C8.79424 28.1247 6.43423 22.5663 6.43423 17.1941C6.46528 9.27569 11.03 3.18935 17.0853 3.18935Z" fill="white"/>
<path d="M69.5958 1.04673C68.8816 1.10883 68.0432 1.17094 67.0184 1.20199C65.8384 1.20199 65.8074 1.10883 64.9379 1.04673C64.3789 1.01567 64.0995 1.10883 64.1926 1.38831C64.2858 1.60568 64.9068 2.00936 65.031 2.38199C65.1863 2.87884 65.2174 3.34463 64.7516 4.742L57.6715 24.5847L49.5357 5.11464C48.9457 3.40673 48.9768 2.90989 49.132 2.35094C49.2562 1.97831 49.9084 1.57462 49.9705 1.35725C50.0636 1.07778 49.7841 0.953568 49.2252 1.01567C48.2936 1.07778 47.1447 1.17094 45.6231 1.17094C44.0704 1.17094 42.9525 1.07778 42.021 1.01567C41.462 0.98462 41.1825 1.07778 41.2757 1.35725C41.3688 1.57462 42.021 1.63673 42.7041 2.31989C43.1078 2.75463 43.7599 3.46884 44.7847 5.45622C44.9399 5.7978 45.0952 6.13938 45.2504 6.48096L45.6231 7.38149C45.7162 7.5678 45.7783 7.75412 45.8715 7.94044C45.8715 7.97149 45.9026 7.97149 45.9026 8.00254L56.1189 32.3479C56.3673 32.9068 56.8021 33.2795 57.0815 32.4721L66.77 5.70464C67.6705 3.34463 68.4158 2.78568 68.7884 2.41305C69.4716 1.72989 70.2479 1.63673 70.3411 1.41936C70.4342 1.13988 70.1547 1.01567 69.5958 1.04673ZM49.8773 21.821C49.6599 21.7279 49.3184 21.9452 49.0389 22.411L47.362 25.0816L39.0709 5.23885C38.4499 3.46884 38.4809 2.972 38.6362 2.41305C38.7604 2.04041 39.4125 1.63673 39.4746 1.41936C39.5678 1.13988 39.2883 1.01567 38.7294 1.07778C37.7978 1.13988 36.6488 1.23304 35.1272 1.23304C33.5746 1.23304 32.4567 1.13988 31.5251 1.07778C30.9662 1.04673 30.6867 1.13988 30.7799 1.41936C30.873 1.63673 31.5251 1.69883 32.2083 2.38199C32.612 2.78568 33.233 3.53095 34.2267 5.42516C34.413 5.7978 34.5683 6.17043 34.7236 6.54306L35.1272 7.47464C35.2204 7.66096 35.2825 7.84728 35.3446 8.03359C35.3446 8.06465 35.3757 8.06465 35.3757 8.0957L45.561 32.3789C45.7162 32.7205 45.9026 33 46.1199 33C46.2752 33 46.5236 32.8137 46.5857 32.5342L49.8152 23.1563C50.0326 22.5352 50.1568 21.9452 49.8773 21.821Z" fill="white"/>
<path d="M91.8295 25.6094C91.6121 25.7026 91.1773 26.3858 90.4321 27.0379C89.5315 27.8452 87.5752 28.6216 84.4699 28.6216H76.6757C82.5136 20.7342 90.2458 14.9894 90.2458 9.33781C90.2458 4.21411 87.42 1.3262 80.8368 1.3262C78.7873 1.3262 75.4647 2.25778 72.5146 3.96569C72.0489 4.21411 71.9557 4.49358 71.9557 4.86622V9.46202C71.9557 10.3315 72.2662 10.3936 72.4525 10.3315C72.6699 10.2383 72.6699 10.052 72.8252 9.61729C73.0736 8.84097 74.0983 6.72938 76.1168 4.99043C77.7315 3.562 79.222 3.28253 80.5263 3.28253C84.3457 3.28253 85.5257 6.04622 85.5257 8.96518C85.5257 13.4368 81.8305 17.8463 78.7873 21.9763C74.6573 27.5968 72.0489 30.9816 71.0552 32.2858C70.962 32.41 70.8999 32.5653 70.962 32.6274C71.0241 32.7516 71.2415 32.7516 71.552 32.7205C73.3841 32.6274 77.7005 32.3789 80.9299 32.4411C83.3521 32.5032 86.9542 32.6895 87.5752 32.7205C88.2584 32.7516 89.4073 32.7826 89.78 32.6274C90.0905 32.4721 90.3389 31.82 90.4631 31.4474C91.2705 28.9942 92.0158 27.7831 92.171 26.3547C92.2331 25.7958 92.1089 25.5163 91.8295 25.6094Z" fill="white"/>
</g>
<defs>
<filter id="filter0_d" x="107" y="0" width="235.031" height="36" filterUnits="userSpaceOnUse" color-interpolation-filters="sRGB">
<feFlood flood-opacity="0" result="BackgroundImageFix"/>
<feColorMatrix in="SourceAlpha" type="matrix" values="0 0 0 0 0 0 0 0 0 0 0 0 0 0 0 0 0 0 127 0"/>
<feOffset dx="1" dy="1"/>
<feGaussianBlur stdDeviation="1"/>
<feColorMatrix type="matrix" values="0 0 0 0 0.133333 0 0 0 0 0.0437364 0 0 0 0 0.0361111 0 0 0 0.8 0"/>
<feBlend mode="normal" in2="BackgroundImageFix" result="effect1_dropShadow"/>
<feBlend mode="normal" in="SourceGraphic" in2="effect1_dropShadow" result="shape"/>
</filter>
<filter id="filter1_d" x="0" y="0" width="95.1867" height="36" filterUnits="userSpaceOnUse" color-interpolation-filters="sRGB">
<feFlood flood-opacity="0" result="BackgroundImageFix"/>
<feColorMatrix in="SourceAlpha" type="matrix" values="0 0 0 0 0 0 0 0 0 0 0 0 0 0 0 0 0 0 127 0"/>
<feOffset dx="1" dy="1"/>
<feGaussianBlur stdDeviation="1"/>
<feColorMatrix type="matrix" values="0 0 0 0 0.133333 0 0 0 0 0.0437364 0 0 0 0 0.0361111 0 0 0 0.8 0"/>
<feBlend mode="normal" in2="BackgroundImageFix" result="effect1_dropShadow"/>
<feBlend mode="normal" in="SourceGraphic" in2="effect1_dropShadow" result="shape"/>
</filter>
</defs>
</svg>
