<svg class="search-bg" viewBox="0 0 800 80" fill="none" preserveAspectRatio="none" xmlns="http://www.w3.org/2000/svg">
<path d="M799.24 25.8255C800.192 25.3962 800.192 24.7522 799.558 24.323C797.653 23.2497 796.384 22.0692 794.797 20.8886C793.527 20.03 791.623 19.2788 792.575 18.2055C792.893 17.9909 792.258 17.7762 791.941 17.6689C789.719 16.8103 787.815 15.5224 784.641 15.3078C781.785 15.0931 779.246 14.6639 776.707 14.2346C775.754 14.1272 774.802 14.1272 774.168 14.2346C773.215 14.4492 772.263 14.2346 771.311 14.2346C766.551 13.9126 762.107 12.9467 756.712 13.1613C755.443 13.2686 754.173 13.1613 752.904 13.054C748.143 12.4101 743.382 12.4101 738.622 12.5174C738.622 12.5174 738.939 12.5174 738.939 12.6247C738.939 12.6247 738.622 12.6247 738.622 12.5174C735.765 12.4101 733.861 11.5515 731.322 11.1222C730.37 10.3709 728.466 10.6929 727.196 10.3709C726.879 10.3709 726.879 10.3709 726.561 10.3709C724.022 9.40501 720.531 9.51233 717.358 9.40501C715.771 9.40501 714.184 9.40501 712.597 9.40501C711.962 8.97572 711.01 8.97572 710.058 8.97572C705.932 9.19036 701.489 9.40501 697.363 9.29769C691.968 9.19036 686.572 9.61966 681.494 9.94163C679.59 10.0489 677.686 9.72698 675.464 9.94163C670.704 10.4782 665.943 11.0149 660.865 11.2295C656.422 11.4442 651.661 11.5515 647.535 12.0881C642.775 12.732 638.331 13.4833 632.936 13.1613C627.858 12.732 622.463 12.5174 617.385 12.1954C615.48 12.0881 613.893 11.2295 611.672 11.4442C611.672 11.3368 611.672 11.3368 611.672 11.2295C609.45 10.8002 607.229 10.6929 605.007 10.6929C602.468 9.94163 600.881 9.19036 603.103 8.00981C603.103 7.90248 602.785 7.68784 602.785 7.58051C602.468 7.36587 602.468 7.15122 602.785 6.93657C604.69 5.75602 604.055 5.43405 600.564 5.2194C598.659 5.11208 598.025 4.89743 599.294 4.25349C600.564 3.50222 600.881 2.64364 603.103 2.21434C603.737 2.10702 604.372 1.67773 603.738 1.24843C603.42 1.03379 602.785 0.926464 602.151 1.14111C599.294 1.78505 595.803 1.46308 592.629 1.67773C589.773 1.78505 586.917 2.10702 583.743 1.9997C576.761 1.67773 570.73 0.175201 564.066 0.0678773C559.622 -0.0394461 554.862 -0.146769 550.736 0.819141C546.927 1.67773 543.119 2.96561 538.041 2.21434C537.724 2.21434 537.406 2.21434 537.089 2.32167C532.328 3.18025 527.25 2.32167 522.49 2.85828C519.316 2.85828 515.825 2.96561 512.651 2.64364C512.016 2.75096 511.381 2.85828 510.747 2.85828C505.986 2.85828 501.225 2.96561 496.465 2.85828C491.387 2.75096 486.309 3.50222 481.231 2.64364C480.596 2.53631 479.644 2.64364 479.327 2.75096C477.74 3.07293 476.153 3.07293 474.249 3.07293C471.075 3.07293 467.584 3.07293 464.41 3.07293C461.871 3.07293 459.332 3.3949 457.745 4.25349C456.476 5.00475 455.524 5.00475 453.937 4.57546C452.032 4.03884 451.398 4.03884 450.763 4.03884C448.224 4.14617 445.685 3.8242 443.463 4.25349C440.289 4.36081 437.116 4.68278 433.942 4.68278C426.008 4.68278 418.391 5.11208 410.456 4.89743C409.822 4.89743 408.869 4.89743 408.552 5.11208C405.378 5.2194 402.522 4.68278 399.348 4.89743C397.444 5.00475 396.174 4.68278 394.588 4.36081C392.049 2.96561 387.605 2.85828 383.797 2.42899C378.401 1.89237 373.006 2.21434 367.293 2.10702C356.82 1.9997 346.029 1.9997 335.556 1.89237C320.639 1.89237 306.04 1.9997 291.123 2.10702C288.902 2.10702 286.68 2.42899 284.459 2.53631C281.285 2.64364 278.111 2.96561 274.62 2.64364C272.398 2.64364 270.494 2.53631 268.272 2.96561C267.638 3.18025 266.686 3.07293 266.051 2.96561C263.512 2.64364 260.338 2.64364 258.434 1.5704C258.116 1.46308 257.482 1.35576 257.164 1.35576C254.308 1.89237 251.769 1.24843 248.913 1.24843C242.248 1.35576 235.265 1.5704 228.601 1.24843C223.523 1.14111 218.445 1.14111 213.367 0.926464C211.145 0.819141 209.876 1.5704 207.971 1.46308C204.798 1.24843 201.624 1.03379 197.815 1.35576C191.15 1.9997 184.486 2.32167 177.503 2.96561C174.33 3.28758 170.838 3.8242 167.347 3.60955C157.826 2.96561 148.305 2.42899 138.466 3.18025C137.514 3.28758 136.562 3.18025 135.292 3.07293C127.041 2.75096 119.106 2.96561 110.855 2.96561C110.537 2.96561 110.22 3.07293 109.585 3.07293C105.459 3.60955 101.333 4.03884 96.8901 4.14616C94.3511 4.25349 91.4948 4.25349 88.9558 4.46814C84.5125 4.89743 79.7519 4.7901 75.3087 5.32672C74.0392 5.43405 72.7697 5.43405 71.5002 5.2194C68.6438 4.68278 65.4701 4.89743 62.2963 4.89743C58.1704 5.00475 53.7272 5.11207 51.8229 6.93657C51.5056 7.25854 50.5534 7.25854 49.6013 7.25854C48.6492 7.25854 47.6971 7.36587 47.0623 7.68784C45.7928 8.22445 43.5712 8.22445 41.3496 8.33178C34.05 8.65375 27.0677 9.19036 21.6724 11.3368C21.355 11.4442 21.0376 11.5515 20.7202 11.5515C15.6422 11.9808 13.1032 13.4833 12.1511 15.3078C11.5164 16.5957 11.5164 17.9909 9.29474 19.0641C8.97737 19.1714 8.97737 19.4934 8.97737 19.6007C10.2469 20.9959 8.97737 22.1765 8.34262 23.5717C7.70787 24.7522 7.70787 26.0401 7.70787 27.2207C7.70787 29.4745 6.75574 31.7283 6.43837 33.8747C5.48624 35.2699 1.99512 36.1285 1.043 37.5237C0.0908755 38.3823 -0.861248 39.2409 1.36037 40.2068C7.39049 42.8899 9.29474 46.1096 7.07312 49.5439C6.75574 49.9732 6.75574 50.2952 7.39049 50.6172C11.8337 52.871 11.5164 60.2075 8.34262 62.5686C7.70787 63.3199 8.34262 64.1785 7.39049 64.9297C7.07312 65.2517 8.02524 65.5737 8.97737 65.681C13.4206 66.4323 17.8639 66.9689 22.3071 67.0762C25.4808 67.1835 28.972 67.0762 31.8283 67.5055C34.05 67.8275 35.9542 68.0421 38.1758 68.2567C44.5233 68.9007 51.1882 68.5787 56.9009 69.5446C61.9789 70.4032 67.3743 69.8666 72.4523 70.5105C79.1172 71.2618 86.0994 71.7984 92.7643 72.2277C96.8901 72.5497 100.381 73.5156 104.825 73.4083C107.681 73.3009 111.489 73.3009 113.711 74.6961C114.028 74.8035 114.663 74.9108 114.98 74.8035C115.933 74.6962 116.567 74.0522 117.837 74.6961C118.789 75.2328 119.106 75.7694 117.837 76.306C117.202 76.5206 116.885 76.9499 117.837 77.2719C118.789 77.5939 120.058 77.9158 121.328 77.7012C127.041 76.628 132.753 76.7353 138.784 77.0573C143.862 77.2719 149.257 77.4866 153.383 75.7694C157.509 75.1254 161.952 74.9108 166.078 74.4815C172.425 73.8376 177.821 74.5888 182.899 75.984C183.216 76.1987 183.533 76.4133 184.168 76.4133C185.12 76.7353 186.072 76.628 187.025 76.628C192.737 76.628 198.133 76.628 203.845 76.628C217.492 76.628 231.14 77.0573 245.104 76.8426C246.374 76.8426 247.643 76.8426 248.595 76.628C249.547 76.628 250.499 76.5206 251.769 76.5206C257.164 76.306 262.56 75.984 267.955 75.984C274.303 75.984 280.65 76.0914 286.68 76.4133C292.076 76.628 297.154 76.5206 302.549 76.628C310.801 76.9499 319.37 77.2719 327.621 77.7012C336.825 78.2378 346.347 78.1305 355.868 78.2378C363.802 78.3451 371.737 78.7744 379.671 78.9891C379.988 78.9891 380.623 78.9891 380.94 78.9891C383.162 79.0964 385.384 79.0964 387.605 79.2037C393.001 79.3111 398.713 79.5257 404.109 79.955C409.504 80.4916 415.217 76.0528 420.93 76.0528C425.056 76.2675 429.181 76.5894 433.307 76.8041C435.212 76.9114 436.798 77.1261 438.703 77.0187C445.05 76.6968 451.398 76.4821 457.745 76.5894C459.967 77.126 462.188 76.6968 464.41 76.8041C473.931 77.3407 483.135 77.77 492.656 77.6627C499.956 77.5553 506.938 78.1993 514.238 78.6286C520.903 78.9505 527.25 79.3798 533.915 79.3798C539.31 79.4872 544.388 79.0579 549.784 79.0579C556.449 79.1652 563.114 79.4872 569.778 79.2725C571.365 79.2725 572.952 79.3798 574.539 79.4872C576.443 79.9165 577.078 79.0579 578.347 78.9506C583.743 78.6286 588.186 77.5553 592.629 76.4821C594.851 75.9455 597.39 74.9796 599.929 75.1942C607.229 75.7308 613.893 74.443 620.876 74.121C625.954 73.9064 629.445 72.4038 634.84 72.1892C639.283 71.9745 643.409 71.2233 647.535 70.5793C654.2 69.3988 661.5 69.2915 668.799 69.2915C670.386 69.2915 671.973 69.5061 673.243 69.0768C687.207 71.3306 701.171 71.6526 714.819 69.0768C717.358 68.8622 720.214 68.7548 722.753 68.3255C724.975 68.0036 726.879 67.145 729.418 67.145C731.005 67.145 731.957 66.823 733.226 66.3937C734.813 65.7498 736.4 65.2132 738.304 64.6765C740.843 63.9253 743.065 63.0667 744.334 61.7788C744.969 61.2422 745.604 60.4909 747.191 59.9543C749.73 59.0957 752.269 58.7738 755.76 58.8811C757.982 58.9884 759.886 58.7738 760.521 57.8078C761.155 57.0566 762.742 56.9493 764.329 56.8419C766.868 56.7346 769.724 57.1639 771.311 55.9833C771.629 55.876 772.581 55.876 772.898 55.876C777.024 55.876 776.707 54.5881 777.341 53.5149C777.976 52.549 776.072 52.1197 774.802 51.9051C770.994 51.1538 766.868 50.8318 762.425 50.8318C761.155 50.8318 759.568 50.9391 758.616 50.5099C757.029 49.7586 754.808 49.6513 752.586 49.6513C750.047 49.6513 759.254 49.6513 756.715 49.6513C756.398 49.3293 755.763 49.1147 754.811 48.9C754.176 48.4707 753.541 48.2561 752.272 48.1487C749.733 48.0414 759.575 47.3975 758.305 46.5389C757.67 46.2169 757.67 45.895 758.305 45.573C759.575 45.0364 760.527 44.3924 758.622 43.7485C757.988 43.5338 758.305 43.2119 758.94 42.9972C762.114 42.246 763.066 40.7434 764.97 39.5629C766.874 38.3823 765.605 35.5919 765.605 35.5919C765.605 35.5919 767.857 33 771.635 33.3381C775.412 33.6762 768.911 34.7867 778.293 33.5528C778.928 33.4454 779.563 33.2308 780.198 33.5528C781.467 34.0894 782.419 33.6601 783.372 33.4454C784.006 33.3381 784.641 33.0161 785.593 33.0161C790.354 33.1235 793.845 32.2649 796.384 30.655C798.605 29.4745 799.558 27.7573 799.24 25.8255ZM93.399 4.79011C94.0338 4.79011 94.6685 4.79011 95.3033 4.79011C94.6685 4.89743 94.3511 5.00475 93.7164 4.89743C93.7164 4.89743 93.399 4.89743 93.399 4.79011ZM521.855 78.9506C521.855 79.0579 521.855 79.0579 521.855 78.9506ZM374.91 2.53631C374.593 2.53631 374.276 2.64364 373.958 2.75096C373.958 2.53631 374.593 2.53631 374.91 2.53631ZM103.872 73.1936C104.825 73.1936 105.459 73.1936 106.411 73.1936C105.459 73.3009 104.507 73.3009 103.872 73.1936ZM515.507 78.7359C515.19 78.6286 515.19 78.6286 515.507 78.7359C515.507 78.6286 515.825 78.6286 515.825 78.6286C515.825 78.6286 515.825 78.6286 515.507 78.7359ZM757.985 50.4025C757.667 50.4025 757.667 50.4025 757.35 50.4025C756.715 50.4025 756.398 50.4025 756.08 50.2952C756.715 50.2952 757.35 50.2952 757.985 50.4025Z"/>
</svg>
